<svg width="512" height="512" viewBox="0 0 512 512" fill="none" xmlns="http://www.w3.org/2000/svg">
<path d="M256 47.9296C205.343 47.9317 156.341 65.9587 117.759 98.785C79.178 131.611 53.536 177.095 45.4215 227.097C37.307 277.1 47.2494 328.358 73.4698 371.7C99.6903 415.043 140.478 447.641 188.534 463.663C199.2 465.53 203.2 459.13 203.2 453.529C203.2 448.463 202.934 431.663 202.934 413.796C149.333 423.663 135.467 400.73 131.2 388.73C126.466 377.059 118.961 366.717 109.333 358.596C101.867 354.596 91.2 344.73 109.066 344.463C115.889 345.204 122.432 347.577 128.141 351.384C133.851 355.19 138.559 360.317 141.867 366.329C144.784 371.571 148.708 376.185 153.412 379.908C158.116 383.631 163.509 386.388 169.281 388.023C175.053 389.658 181.09 390.138 187.048 389.436C193.006 388.733 198.766 386.862 204 383.929C204.923 373.084 209.757 362.944 217.6 355.397C170.133 350.063 120.533 331.663 120.533 250.064C120.234 228.861 128.057 208.348 142.4 192.73C135.878 174.303 136.641 154.08 144.533 136.197C144.533 136.197 162.399 130.597 203.2 158.064C238.107 148.463 274.959 148.463 309.867 158.064C350.666 130.33 368.533 136.197 368.533 136.197C376.427 154.08 377.19 174.303 370.667 192.73C385.053 208.321 392.883 228.852 392.533 250.064C392.533 331.93 342.666 350.063 295.2 355.397C300.291 360.557 304.212 366.752 306.697 373.562C309.182 380.372 310.172 387.637 309.6 394.864C309.6 423.397 309.333 446.33 309.333 453.53C309.333 459.13 313.333 465.797 324 463.664C371.971 447.511 412.641 414.837 438.75 371.472C464.859 328.107 474.707 276.875 466.536 226.921C458.365 176.967 432.708 131.543 394.143 98.7565C355.579 65.9701 306.618 47.9559 256 47.9296Z" fill="black"/>
</svg>
