<svg width="512" height="512" viewBox="0 0 512 512" fill="none" xmlns="http://www.w3.org/2000/svg">
<g clip-path="url(#clip0_190_32)">
<path d="M464 64H48C35.2696 64 23.0606 69.0571 14.0589 78.0589C5.05713 87.0606 0 99.2696 0 112L0 400C0 412.73 5.05713 424.939 14.0589 433.941C23.0606 442.943 35.2696 448 48 448H464C476.73 448 488.939 442.943 497.941 433.941C506.943 424.939 512 412.73 512 400V112C512 99.2696 506.943 87.0606 497.941 78.0589C488.939 69.0571 476.73 64 464 64ZM407.488 96L256 215.616L104.512 96H407.488ZM64 416V148.672L256 296.352L448 148.64V416H64Z" fill="black"/>
</g>
<defs>
<clipPath id="clip0_190_32">
<rect width="512" height="512" fill="white"/>
</clipPath>
</defs>
</svg>
