<svg width="512" height="512" viewBox="0 0 512 512" fill="none" xmlns="http://www.w3.org/2000/svg">
<path d="M436.693 42.6667H75.3067C71.2443 42.6103 67.2107 43.3546 63.4361 44.8573C59.6614 46.3599 56.2198 48.5914 53.3077 51.4243C50.3956 54.2571 48.07 57.6359 46.4638 61.3677C44.8577 65.0994 44.0023 69.111 43.9467 73.1733V438.827C44.0023 442.889 44.8577 446.901 46.4638 450.632C48.07 454.364 50.3956 457.743 53.3077 460.576C56.2198 463.409 59.6614 465.64 63.4361 467.143C67.2107 468.645 71.2443 469.39 75.3067 469.333H436.693C440.756 469.39 444.789 468.645 448.564 467.143C452.339 465.64 455.78 463.409 458.692 460.576C461.604 457.743 463.93 454.364 465.536 450.632C467.142 446.901 467.998 442.889 468.053 438.827V73.1733C467.998 69.111 467.142 65.0994 465.536 61.3677C463.93 57.6359 461.604 54.2571 458.692 51.4243C455.78 48.5914 452.339 46.3599 448.564 44.8573C444.789 43.3546 440.756 42.6103 436.693 42.6667ZM172.587 399.787H108.587V207.787H172.587V399.787ZM140.587 180.907C131.76 180.907 123.295 177.4 117.054 171.159C110.813 164.918 107.307 156.453 107.307 147.627C107.307 138.8 110.813 130.335 117.054 124.094C123.295 117.853 131.76 114.347 140.587 114.347C145.274 113.815 150.02 114.28 154.515 115.71C159.01 117.139 163.152 119.503 166.67 122.645C170.188 125.786 173.003 129.636 174.931 133.941C176.858 138.246 177.854 142.91 177.854 147.627C177.854 152.344 176.858 157.007 174.931 161.312C173.003 165.618 170.188 169.467 166.67 172.609C163.152 175.751 159.01 178.114 154.515 179.544C150.02 180.974 145.274 181.438 140.587 180.907ZM403.413 399.787H339.413V296.747C339.413 270.933 330.24 254.08 306.987 254.08C299.79 254.133 292.783 256.39 286.909 260.548C281.034 264.705 276.576 270.564 274.133 277.333C272.464 282.348 271.741 287.628 272 292.907V399.573H208C208 399.573 208 225.067 208 207.573H272V234.667C277.814 224.578 286.27 216.267 296.457 210.628C306.645 204.99 318.177 202.237 329.813 202.667C372.48 202.667 403.413 230.187 403.413 289.28V399.787Z" fill="black"/>
</svg>
