<svg width="249" height="250" viewBox="0 0 249 250" fill="none" xmlns="http://www.w3.org/2000/svg">
<rect x="75.6182" y="7.03464" width="126.39" height="226.19" fill="#808080"/>
<rect x="54.5531" y="23.8095" width="126.39" height="226.19" fill="#C0C0C0"/>
<path d="M102.522 168.567C101.982 171.279 100.057 173.039 98.2211 172.495C96.3852 171.951 95.3348 169.309 95.8743 166.596C96.0755 165.508 96.548 164.51 97.2537 163.694L99.6898 152.241L105.386 154.122L102.378 165.214C102.701 166.337 102.749 167.488 102.515 168.567H102.522Z" fill="#F8A8AB"/>
<path d="M115.36 243.872H108.675V234.367H115.36V243.872Z" fill="#F8A8AB"/>
<path d="M109.415 249.317C110.558 249.419 116.28 249.874 116.567 248.559C116.829 247.353 116.443 246.092 116.388 245.919C115.839 240.436 115.635 240.375 115.51 240.34C115.316 240.282 114.747 240.554 113.825 241.149L113.767 241.188L113.754 241.255C113.738 241.341 113.33 243.354 111.392 243.043C110.063 242.832 109.632 242.538 109.495 242.394C109.607 242.343 109.747 242.253 109.846 242.1C109.99 241.876 110.015 241.588 109.92 241.242C109.671 240.33 108.923 238.984 108.892 238.929L108.805 238.776L101.206 243.913L96.5128 245.257C96.1584 245.36 95.8743 245.612 95.7306 245.951C95.5326 246.425 95.654 246.975 96.0371 247.321C96.8896 248.088 98.5818 249.403 100.36 249.566C100.833 249.611 101.459 249.627 102.161 249.627C105.095 249.627 109.38 249.323 109.412 249.317H109.415Z" fill="#2F2E43"/>
<path d="M133.882 243.872H127.196V234.367H133.882V243.872Z" fill="#F8A8AB"/>
<path d="M127.937 249.317C129.08 249.419 134.802 249.874 135.089 248.559C135.351 247.353 134.965 246.092 134.91 245.919C134.361 240.436 134.157 240.375 134.032 240.34C133.837 240.282 133.269 240.554 132.346 241.149L132.289 241.188L132.276 241.255C132.26 241.341 131.851 243.354 129.913 243.043C128.585 242.832 128.154 242.538 128.017 242.394C128.129 242.343 128.269 242.253 128.368 242.1C128.512 241.876 128.537 241.588 128.442 241.242C128.192 240.33 127.445 238.984 127.413 238.929L127.327 238.776L119.728 243.913L115.035 245.257C114.68 245.36 114.396 245.612 114.252 245.951C114.054 246.425 114.176 246.975 114.559 247.321C115.411 248.088 117.104 249.403 118.882 249.566C119.355 249.611 119.98 249.627 120.683 249.627C123.617 249.627 127.902 249.323 127.934 249.317H127.937Z" fill="#2F2E43"/>
<path d="M128.464 101.889L118.097 105.303V90.3499H127.503L128.464 101.889Z" fill="#F8A8AB"/>
<path d="M119.38 94.4896C113.676 94.4896 109.051 89.8561 109.051 84.1403C109.051 78.4245 113.676 73.791 119.38 73.791C125.085 73.791 129.709 78.4245 129.709 84.1403C129.709 89.8561 125.085 94.4896 119.38 94.4896Z" fill="#F8A8AB"/>
<path d="M122.011 84.9497L120.587 86.6804L118.01 82.1632C118.01 82.1632 114.722 82.3327 114.722 79.8886C114.722 77.4444 111.705 77.374 111.705 77.374C111.705 77.374 107.436 69.9039 116.28 71.8714C116.28 71.8714 122.413 67.6613 125.466 71.2604C125.466 71.2604 134.821 75.9792 132.142 84.1979L127.694 92.6693L126.685 90.753C126.685 90.753 127.295 82.7038 122.008 84.9465L122.011 84.9497Z" fill="#2F2E43"/>
<path d="M196.507 249.624C196.507 249.835 196.338 250.005 196.127 250.005H25.2258C25.0151 250.005 24.8459 249.835 24.8459 249.624C24.8459 249.413 25.0151 249.243 25.2258 249.243H196.127C196.338 249.243 196.507 249.413 196.507 249.624Z" fill="#484565"/>
<path d="M91.5257 181.462L111.044 175.176C113.451 174.402 116.037 175.698 116.858 178.097L125.677 203.863C126.577 206.493 124.987 209.321 122.276 209.916L99.8431 214.833C97.3782 215.374 94.9325 213.841 94.3386 211.384L88.435 186.987C87.8635 184.62 89.2109 182.208 91.5257 181.462Z" fill="#E2E3E4"/>
<path d="M93.5052 186.898L94.7632 186.674C93.9586 182.093 92.8475 169.878 97.3335 168.381C99.5078 167.655 101.698 168.925 103.841 172.159C105.523 174.703 106.507 177.518 106.516 177.547L107.723 177.128C107.551 176.632 103.448 164.99 96.9312 167.165C90.4912 169.315 93.3807 186.178 93.5084 186.895L93.5052 186.898Z" fill="#2F2E43"/>
<path d="M108.304 151.128H143.193L134.655 239.326L124.757 238.686L124.268 175.17L118.039 203.044L116.216 238.206L107.196 238.686L106.149 198.687L108.304 151.128Z" fill="#2F2E43"/>
<path d="M129.029 96.4219L117.215 99.3012L107.116 143.031L108.304 151.128L137.886 156.144L143.193 151.128L129.029 96.4219Z" fill="black"/>
<path d="M129.048 94.2337L133.087 98.7733L141.28 100.744L155.249 162.974L128.333 167.543L120.836 104.164L129.048 94.2337Z" fill="#2F2E43"/>
<path d="M117.222 96.5019L119.329 104.026L109.575 171.503H104.543L106.864 105.472L113.697 100.034L117.222 96.5019Z" fill="#2F2E43"/>
<path d="M110.916 104.637L106.864 105.472C106.864 105.472 105.089 106.125 104.444 111.18C103.802 116.234 103.687 133.209 103.687 133.209L96.797 160.594L104.623 163.179L108.307 148.444L110.919 104.634L110.916 104.637Z" fill="#2F2E43"/>
<path d="M117.675 101.125L119.636 104.727L115.715 146.982L120.29 151.24L124.54 147.311L121.433 104.89L125.961 101.125L124.377 99.9762L122.742 101.94L119.473 101.288L118.167 99.3204L117.675 101.125Z" fill="#2F2E43"/>
<path d="M136.931 157.948C135.287 160.172 132.797 160.936 131.369 159.66C129.942 158.384 130.118 155.546 131.762 153.319C132.407 152.42 133.26 151.723 134.249 151.288L141.337 141.975L145.686 146.115L138.237 154.855C138.049 156.01 137.602 157.069 136.931 157.945V157.948Z" fill="#F8A8AB"/>
<path d="M138.042 101.765L141.28 100.744C141.28 100.744 145.667 101.835 147.12 107.325L154.211 134.07L142.184 155.223L135.756 147.404L141.81 127.985L138.039 101.765H138.042Z" fill="#2F2E43"/>
</svg>
