<svg width="70" height="70" viewBox="0 0 70 70" fill="none" xmlns="http://www.w3.org/2000/svg">
<path d="M0 0V70H70V0H0ZM36.5344 59.8811C35.5033 61.9769 33.5327 63.3547 31.2513 64.0191C27.7441 64.8243 24.3913 64.3657 21.8951 62.8671C20.2243 61.8427 18.9203 60.2659 18.0368 58.4496C19.8128 57.3648 21.5842 56.2733 23.3602 55.1885C23.4071 55.2087 23.5458 55.4614 23.7337 55.788C24.4114 56.9264 24.9974 57.7317 26.1493 58.2953C27.2811 58.68 29.7616 58.9283 30.7212 56.9376C31.3072 55.9266 31.1193 52.6074 31.1193 49.0085C31.1193 43.3519 31.1462 37.7892 31.1462 32.0632H37.693C37.693 38.0755 37.7265 44.1034 37.693 50.1067C37.7064 53.7861 38.0263 57.1322 36.5344 59.8811ZM63.697 58.0314C61.4222 65.8174 48.7312 66.0701 43.6628 60.9257C42.5914 59.7156 41.9204 59.0826 41.2807 57.6847C43.9759 56.1347 43.9759 56.1347 46.5973 54.6182C48.0221 56.8079 49.3395 58.0112 51.7082 58.5033C54.9224 58.8947 58.1566 57.7921 57.4319 54.3788C56.6871 51.5897 50.8515 50.9119 46.8792 47.9304C42.8464 45.2218 41.9025 38.6414 45.215 34.8815C46.32 33.4902 48.2033 32.4524 50.1783 31.9536L52.2405 31.6874C56.1995 31.6069 58.6756 32.6515 60.4918 34.6824C60.9973 35.1946 61.4088 35.7471 62.1827 36.9459C60.0735 38.2902 60.0802 38.2768 57.0584 40.2339C56.412 38.8427 55.3429 37.9703 54.2111 37.5923C52.4553 37.06 50.2387 37.6393 49.7802 39.4958C49.6214 40.0684 49.6549 40.6007 49.9077 41.5446C50.6189 43.1685 53.0077 43.873 55.1505 44.8572C61.3193 47.3601 63.4017 50.0396 63.9139 53.2336C64.406 55.9826 63.7931 57.7652 63.7014 58.0314H63.697Z" fill="#444444"/>
</svg>
