<svg width="70" height="70" viewBox="0 0 70 70" fill="none" xmlns="http://www.w3.org/2000/svg">
<g clip-path="url(#clip0_77_42)">
<path d="M27.4575 61.3287C25.6608 62.37 25.3196 62.4925 23.6308 63.0904C23.2225 63.2304 22.6042 63.4783 23.8642 64.2017L32.3225 69.2708C33.1304 69.7462 34.0638 69.9942 34.9825 69.9942L34.9883 70C35.9188 70 36.8375 69.7492 37.6454 69.2767L62.9679 54.4687C64.6129 53.4975 65.6279 51.7037 65.6279 49.7875V20.1892C65.6279 18.2583 64.6158 16.4646 62.9679 15.5079L37.6454 0.68541C36.0558 -0.230423 33.9296 -0.230423 32.3254 0.68541L7.03208 15.4933C5.39 16.4529 4.375 18.2583 4.375 20.1746V49.7729C4.375 51.7037 5.38708 53.4975 7.03208 54.4542L13.6675 58.3304C16.8758 59.9433 18.025 59.9433 19.4921 59.9433C24.2492 59.9433 26.9908 57.0267 26.9908 51.9429V22.7062C26.9908 22.2921 26.6496 21.9712 26.25 21.9712H23.0417C22.6304 21.9712 22.3008 22.2892 22.3008 22.7062V51.9283C22.3008 54.1917 19.9967 56.4287 16.2254 54.5271L9.28958 50.47C9.0475 50.3446 8.89583 50.0675 8.89583 49.7875V20.1892C8.89583 19.9004 9.0475 19.6204 9.2925 19.4804L34.5858 4.67249C34.8162 4.53249 35.1342 4.53249 35.3675 4.67249L60.6754 19.4658C60.9204 19.6175 61.0721 19.8829 61.0721 20.1746V49.7875C61.0721 50.0617 60.9233 50.3417 60.69 50.4817L35.3675 65.2896C35.1488 65.4296 34.8192 65.4296 34.5858 65.2896L28.0875 61.3871C27.895 61.2617 27.65 61.2179 27.4575 61.3287Z" fill="black"/>
<path d="M42.7992 45.1179C36.0967 45.1179 34.6267 43.4087 34.1367 40.0342C34.0813 39.6725 33.7808 39.41 33.4104 39.41H30.135C29.7238 39.41 29.4088 39.7425 29.4088 40.145C29.4088 44.4646 31.7246 49.6183 42.8138 49.6183C50.8171 49.6037 55.4283 46.3983 55.4283 40.8129L55.4196 40.8158C55.4196 35.2742 51.7183 33.8012 43.9454 32.76C36.0763 31.7042 35.2829 31.1617 35.2829 29.3008C35.2829 27.7608 35.9567 25.7046 41.7813 25.7046C46.9788 25.7046 48.8979 26.8421 49.6913 30.3975C49.7583 30.7329 50.0617 30.9808 50.4058 30.9808H53.6958C53.9 30.9808 54.0925 30.8992 54.2296 30.7446C54.3667 30.59 54.4338 30.3829 54.4221 30.1758C53.9146 24.0508 49.8983 21.2042 41.7813 21.2042C34.5567 21.2042 30.2517 24.29 30.2517 29.4671C30.2517 35.0787 34.5421 36.6362 41.4663 37.3275C49.7613 38.15 50.4029 39.3837 50.4029 41.0375C50.4088 43.8987 48.1338 45.1179 42.7992 45.1179Z" fill="black"/>
</g>
<defs>
<clipPath id="clip0_77_42">
<rect width="70" height="70" fill="white"/>
</clipPath>
</defs>
</svg>
