<svg width="70" height="70" viewBox="0 0 70 70" fill="none" xmlns="http://www.w3.org/2000/svg">
<path d="M32.3837 30.4439C31.4915 30.9591 30.7721 31.7272 30.3164 32.6512C29.8608 33.5752 29.6893 34.6136 29.8238 35.635C29.9583 36.6564 30.3926 37.6151 31.072 38.3896C31.7513 39.1642 32.645 39.7199 33.6401 39.9866C34.6353 40.2532 35.6872 40.2187 36.6627 39.8875C37.6383 39.5563 38.4937 38.9433 39.1209 38.1259C39.748 37.3085 40.1187 36.3235 40.186 35.2955C40.2534 34.2675 40.0143 33.2425 39.4992 32.3503C38.8083 31.154 37.6706 30.2811 36.3362 29.9236C35.0019 29.5661 33.5801 29.7533 32.3837 30.4439ZM55.7308 36.0955C55.3888 35.7047 55.028 35.3128 54.6482 34.9199C54.9135 34.6411 55.1701 34.3626 55.4182 34.0843C60.1019 28.8218 62.0786 23.5443 60.247 20.3714C58.4907 17.3294 53.2662 16.4228 46.7255 17.6946C46.0813 17.8206 45.4406 17.9628 44.8035 18.1211C44.6815 17.7006 44.5518 17.2826 44.4143 16.8669C42.1954 10.1804 38.6111 5.83101 34.9477 5.83331C31.4348 5.83492 28.0396 9.90816 25.8737 16.2094C25.6607 16.831 25.4635 17.4578 25.2824 18.0898C24.8564 17.9852 24.4286 17.8887 23.999 17.8001C17.0982 16.3833 11.54 17.3164 9.71191 20.4911C7.959 23.5354 9.79221 28.5114 14.1701 33.5347C14.6042 34.0317 15.0507 34.5176 15.5095 34.9923C14.9687 35.5494 14.4565 36.1062 13.9792 36.6598C9.70748 41.6123 7.97909 46.507 9.72918 49.5381C11.5366 52.6691 17.0166 53.6925 23.6866 52.38C24.2272 52.2728 24.7647 52.1523 25.2993 52.0183C25.4951 52.7019 25.7099 53.3796 25.9437 54.0512C28.1001 60.226 31.4762 64.1681 34.9766 64.1668C38.5917 64.1647 42.2156 59.9293 44.4113 53.4955C44.5847 52.987 44.7488 52.459 44.9044 51.9154C45.595 52.0872 46.29 52.2396 46.9894 52.3727C53.4159 53.5886 58.5175 52.6323 60.2645 49.5989C62.0684 46.4657 60.2085 41.2105 55.7308 36.0955ZM11.8714 21.7345C12.9968 19.7803 17.5392 19.018 23.4975 20.2412C23.8783 20.3195 24.2656 20.407 24.6594 20.5037C24.0777 23.077 23.6672 25.686 23.4307 28.3136C21.2808 29.826 19.2311 31.476 17.2944 33.2532C16.8677 32.8119 16.4524 32.3599 16.0484 31.8973C12.2974 27.5931 10.815 23.569 11.8714 21.7345ZM23.2075 38.4414C21.7183 37.3139 20.3344 36.1587 19.0783 34.9969C20.3335 33.8422 21.7183 32.691 23.2044 31.5664C23.151 32.712 23.1246 33.8584 23.1251 35.0058C23.1258 36.1514 23.1533 37.2966 23.2075 38.4414ZM23.2057 49.9349C20.6777 50.497 18.0679 50.5891 15.5065 50.2065C14.8044 50.1519 14.1209 49.9538 13.4984 49.6245C12.8758 49.2953 12.3274 48.8419 11.887 48.2923C10.8251 46.4529 12.2129 42.5231 15.8662 38.2875C16.3255 37.7566 16.7999 37.2397 17.2893 36.7366C19.2263 38.5231 21.2794 40.1796 23.4351 41.6951C23.6748 44.3563 24.0901 46.9987 24.6782 49.6051C24.1902 49.7271 23.6993 49.8371 23.2057 49.9349ZM43.9173 26.4868C42.9391 25.8704 41.9488 25.2738 40.9464 24.6969C39.96 24.1292 38.9617 23.5827 37.9515 23.0576C39.6811 22.3304 41.3813 21.7093 43.0226 21.2031C43.4095 22.9482 43.7081 24.7116 43.9173 26.4868ZM28.2304 17.0193C30.0861 11.6202 32.8318 8.32613 34.949 8.32523C37.2038 8.32415 40.1335 11.8785 42.0491 17.6516C42.1736 18.028 42.2912 18.4065 42.4021 18.787C39.8853 19.5676 37.423 20.5139 35.0312 21.6197C32.6493 20.5009 30.1947 19.5441 27.6841 18.7557C27.8519 18.1725 28.034 17.5938 28.2304 17.0193ZM27.0627 21.1721C28.7747 21.711 30.4585 22.336 32.1075 23.0446C30.0642 24.099 28.0738 25.2476 26.1361 26.4903C26.3702 24.6295 26.6817 22.8466 27.0627 21.1721ZM26.1403 43.5157C27.1066 44.1343 28.087 44.73 29.0816 45.3028C30.0961 45.8869 31.1241 46.4465 32.1656 46.9816C30.5039 47.7146 28.8057 48.3619 27.0776 48.9209C26.6922 47.2231 26.3773 45.409 26.1403 43.5157ZM42.0528 52.6901C41.2768 55.1609 40.0527 57.4678 38.4417 59.4954C38.0435 60.0763 37.5304 60.5694 36.9342 60.9442C36.338 61.3189 35.6713 61.5674 34.9753 61.6744C32.8513 61.6756 30.1405 58.5098 28.2964 53.2293C28.0792 52.605 27.8794 51.975 27.697 51.3393C30.2196 50.5255 32.6842 49.5416 35.0737 48.3943C37.4852 49.5073 39.9671 50.4607 42.5035 51.2483C42.365 51.7324 42.2148 52.213 42.0528 52.6901ZM43.1093 48.8278C41.4491 48.3145 39.7243 47.683 37.9697 46.9451C38.9588 46.4245 39.9551 45.8748 40.9585 45.2959C41.9882 44.7013 42.9916 44.0918 43.9688 43.4675C43.7741 45.2678 43.4873 47.0569 43.1093 48.8278ZM44.411 34.995C44.4131 36.7663 44.3578 38.5362 44.2451 40.3046C42.8081 41.2771 41.291 42.2267 39.7126 43.1379C38.1407 44.0455 36.5832 44.8795 35.0554 45.6343C33.4477 44.8639 31.871 44.0336 30.3253 43.1435C28.7883 42.2588 27.2865 41.3167 25.82 40.3172C25.6859 38.5493 25.6184 36.7782 25.6174 35.0039C25.6161 33.2308 25.6826 31.4601 25.8159 29.6907C27.2525 28.7097 28.7585 27.7608 30.3157 26.8618C31.8799 25.9586 33.4569 25.1281 35.0252 24.3754C36.6131 25.1472 38.1723 25.9742 39.703 26.8565C41.2389 27.7393 42.7449 28.6713 44.2209 29.6527C44.3476 31.4307 44.4109 33.2115 44.411 34.995ZM47.2014 20.1409C52.8053 19.0509 57.0306 19.7841 58.0891 21.6174C59.2167 23.5704 57.6006 27.8838 53.5571 32.4276C53.3337 32.6783 53.1017 32.9301 52.8615 33.1829C50.8913 31.4019 48.802 29.7572 46.6083 28.26C46.3869 25.6612 45.9919 23.08 45.4257 20.534C46.0291 20.3855 46.621 20.2545 47.2014 20.1409ZM46.8226 31.4713C48.3023 32.5516 49.725 33.708 51.0849 34.9358C49.731 36.1838 48.3128 37.3601 46.8361 38.4601C46.8814 37.3052 46.9036 36.1498 46.9029 34.9938C46.9024 33.8194 46.8756 32.6452 46.8226 31.4713ZM58.1046 48.3552C57.0445 50.196 52.9483 50.9637 47.4523 49.9239C46.8224 49.805 46.1762 49.6634 45.5134 49.4993C46.0659 46.9205 46.4435 44.3072 46.6435 41.6775C48.8336 40.1542 50.9162 38.482 52.8767 36.6728C53.2197 37.0292 53.5461 37.384 53.8556 37.737C55.6087 39.6432 56.9959 41.8556 57.9479 44.2641C58.2524 44.8991 58.4233 45.5897 58.4503 46.2934C58.4772 46.9971 58.3596 47.6988 58.1046 48.3552Z" fill="black"/>
</svg>
