<svg width="130" height="123" viewBox="0 0 130 123" fill="none" xmlns="http://www.w3.org/2000/svg">
<path d="M100.208 48.7389C96.1461 47.4151 92.5605 45.035 89.8625 41.8714C86.889 38.3466 83.1028 35.5119 78.7936 33.5844C74.4843 31.6568 69.7661 30.6873 65 30.7501C58.5887 30.3205 52.2415 32.1915 47.2225 35.9905C42.2036 39.7894 38.8811 45.2376 37.9167 51.2501C39.8161 48.243 42.675 45.8836 46.0817 44.5113C49.4885 43.1391 53.2675 42.8249 56.875 43.6139C60.9304 44.9761 64.5102 47.3701 67.2208 50.5326C70.2106 54.0293 74.004 56.8346 78.3124 58.7351C82.6207 60.6356 87.3305 61.5813 92.0833 61.5001C98.4947 61.9297 104.842 60.0587 109.861 56.2598C114.88 52.4608 118.202 47.0126 119.167 41.0001C117.302 44.0432 114.452 46.4383 111.038 47.8317C107.625 49.2252 103.828 49.5432 100.208 48.7389ZM29.7917 74.2614C33.8539 75.5851 37.4395 77.9653 40.1375 81.1289C43.111 84.6537 46.8972 87.4883 51.2065 89.4159C55.5157 91.3434 60.2339 92.3129 65 92.2501C71.4114 92.6797 77.7585 90.8087 82.7775 87.0098C87.7964 83.2108 91.1189 77.7626 92.0833 71.7501C90.1839 74.7572 87.325 77.1167 83.9183 78.4889C80.5115 79.8611 76.7325 80.1753 73.125 79.3864C69.0696 78.0241 65.4898 75.6301 62.7792 72.4676C59.7814 68.9796 55.9864 66.1804 51.6799 64.2807C47.3734 62.381 42.6676 61.4303 37.9167 61.5001C31.5053 61.0705 25.1582 62.9415 20.1392 66.7405C15.1202 70.5394 11.7977 75.9876 10.8333 82.0001C12.6983 78.957 15.548 76.562 18.9618 75.1685C22.3755 73.775 26.1723 73.457 29.7917 74.2614Z" fill="black"/>
</svg>
