<svg width="512" height="512" viewBox="0 0 512 512" fill="none" xmlns="http://www.w3.org/2000/svg">
<g clip-path="url(#clip0_159_36)">
<path d="M502.613 233.173L278.613 9.17337C272.509 3.38129 264.415 0.152344 256 0.152344C247.585 0.152344 239.491 3.38129 233.387 9.17337L190.72 51.84C189.72 52.8316 188.927 54.0114 188.385 55.3112C187.844 56.6111 187.565 58.0053 187.565 59.4134C187.565 60.8215 187.844 62.2157 188.385 63.5155C188.927 64.8154 189.72 65.9951 190.72 66.9867L229.12 106.667C230.599 108.144 232.479 109.153 234.527 109.57C236.576 109.988 238.701 109.794 240.64 109.013C247.145 106.503 254.165 105.625 261.088 106.456C268.01 107.286 274.624 109.801 280.35 113.78C286.075 117.758 290.739 123.079 293.932 129.277C297.125 135.475 298.751 142.362 298.667 149.333C298.612 154.751 297.526 160.109 295.467 165.12C294.686 167.059 294.492 169.184 294.91 171.233C295.327 173.281 296.336 175.161 297.813 176.64L335.36 213.333C336.839 214.81 338.719 215.82 340.767 216.237C342.816 216.654 344.941 216.461 346.88 215.68C355.334 212.314 364.642 211.74 373.446 214.04C382.25 216.34 390.088 221.394 395.815 228.465C401.543 235.535 404.86 244.252 405.282 253.341C405.704 262.431 403.209 271.417 398.162 278.988C393.115 286.559 385.779 292.318 377.226 295.425C368.674 298.531 359.352 298.821 350.622 296.254C341.893 293.687 334.213 288.396 328.704 281.154C323.194 273.912 320.145 265.098 320 256C320.066 250.812 321.078 245.679 322.987 240.853C323.722 238.942 323.892 236.86 323.476 234.855C323.06 232.85 322.075 231.007 320.64 229.547L284.8 193.493C283.309 192.032 281.422 191.04 279.373 190.64C277.323 190.241 275.202 190.452 273.271 191.247C271.34 192.042 269.685 193.386 268.511 195.112C267.337 196.839 266.696 198.872 266.667 200.96V313.6C266.659 315.682 267.261 317.72 268.399 319.464C269.536 321.208 271.159 322.581 273.067 323.413C282.051 327.334 289.41 334.229 293.909 342.938C298.407 351.647 299.769 361.64 297.767 371.235C295.764 380.831 290.518 389.444 282.912 395.627C275.306 401.81 265.802 405.185 256 405.185C246.198 405.185 236.694 401.81 229.088 395.627C221.482 389.444 216.236 380.831 214.233 371.235C212.231 361.64 213.593 351.647 218.091 342.938C222.589 334.229 229.949 327.334 238.933 323.413C240.841 322.581 242.464 321.208 243.601 319.464C244.738 317.72 245.341 315.682 245.333 313.6V197.973C245.341 195.892 244.738 193.853 243.601 192.109C242.464 190.366 240.841 188.993 238.933 188.16C228.842 183.738 220.852 175.583 216.637 165.404C212.422 155.224 212.309 143.808 216.32 133.547C216.977 131.576 217.045 129.456 216.514 127.448C215.984 125.439 214.878 123.629 213.333 122.24L174.72 82.7734C173.728 81.7736 172.549 80.9801 171.249 80.4385C169.949 79.897 168.555 79.6182 167.147 79.6182C165.739 79.6182 164.344 79.897 163.044 80.4385C161.745 80.9801 160.565 81.7736 159.573 82.7734L10.24 232.107C4.24742 238.107 0.88147 246.24 0.88147 254.72C0.88147 263.2 4.24742 271.333 10.24 277.333L234.24 501.547C240.24 507.539 248.373 510.905 256.853 510.905C265.333 510.905 273.467 507.539 279.467 501.547L503.467 277.333C509.459 271.333 512.825 263.2 512.825 254.72C512.825 246.24 509.459 238.107 503.467 232.107L502.613 233.173Z" fill="#303C42"/>
</g>
<defs>
<clipPath id="clip0_159_36">
<rect width="512" height="512" fill="white"/>
</clipPath>
</defs>
</svg>
