<svg width="512" height="512" viewBox="0 0 512 512" fill="none" xmlns="http://www.w3.org/2000/svg">
<path d="M236.864 222.676C230.338 226.444 225.076 232.062 221.743 238.82C218.41 245.579 217.156 253.174 218.14 260.645C219.124 268.116 222.301 275.127 227.269 280.793C232.238 286.458 238.775 290.523 246.054 292.473C253.332 294.423 261.026 294.171 268.162 291.749C275.297 289.326 281.554 284.842 286.141 278.864C290.728 272.885 293.44 265.681 293.932 258.162C294.425 250.642 292.676 243.146 288.908 236.62C283.855 227.87 275.534 221.485 265.774 218.87C256.014 216.255 245.615 217.624 236.864 222.676ZM407.631 264.013C405.13 261.154 402.49 258.288 399.713 255.414C401.653 253.375 403.53 251.338 405.345 249.302C439.603 210.811 454.061 172.21 440.664 149.003C427.818 126.752 389.604 120.121 341.764 129.423C337.052 130.345 332.366 131.385 327.705 132.543C326.813 129.468 325.865 126.41 324.859 123.37C308.629 74.4623 282.413 42.6498 255.617 42.6667C229.923 42.6784 205.09 72.4713 189.248 118.56C187.689 123.107 186.248 127.691 184.922 132.314C181.807 131.549 178.678 130.843 175.536 130.195C125.061 119.832 84.4068 126.658 71.0357 149.878C58.2144 172.144 71.6231 208.54 103.644 245.283C106.82 248.918 110.085 252.472 113.441 255.944C109.485 260.019 105.739 264.091 102.248 268.141C71.0033 304.365 58.3614 340.165 71.162 362.336C84.3821 385.237 124.464 392.723 173.251 383.122C177.204 382.339 181.136 381.457 185.046 380.477C186.479 385.477 188.05 390.433 189.76 395.346C205.532 440.51 230.226 469.344 255.829 469.335C282.27 469.319 308.777 438.34 324.837 391.281C326.105 387.562 327.306 383.701 328.444 379.724C333.495 380.981 338.578 382.096 343.694 383.069C390.699 391.962 428.014 384.968 440.791 362.781C453.986 339.863 440.382 301.426 407.631 264.013ZM86.8307 158.973C95.0624 144.679 128.287 139.103 171.867 148.05C174.652 148.623 177.485 149.263 180.366 149.97C176.111 168.792 173.109 187.875 171.379 207.094C155.654 218.156 140.662 230.225 126.496 243.224C123.375 239.996 120.337 236.69 117.383 233.306C89.9467 201.824 79.104 172.391 86.8307 158.973ZM169.746 281.172C158.854 272.924 148.732 264.475 139.544 255.977C148.725 247.532 158.854 239.111 169.724 230.886C169.333 239.265 169.14 247.65 169.143 256.042C169.149 264.422 169.35 272.798 169.746 281.172ZM169.733 365.238C151.243 369.35 132.154 370.023 113.419 367.225C108.284 366.825 103.285 365.376 98.7309 362.968C94.1773 360.56 90.1659 357.244 86.9446 353.224C79.1778 339.77 89.3289 311.027 116.05 280.046C119.41 276.163 122.879 272.382 126.459 268.702C140.627 281.769 155.644 293.885 171.411 304.97C173.164 324.435 176.202 343.762 180.503 362.826C176.934 363.719 173.344 364.523 169.733 365.238ZM321.224 193.732C314.069 189.223 306.825 184.86 299.494 180.641C292.279 176.488 284.977 172.491 277.588 168.65C290.239 163.331 302.675 158.788 314.68 155.086C317.51 167.85 319.694 180.748 321.224 193.732ZM206.485 124.485C220.058 84.9935 240.141 60.8999 255.627 60.8933C272.119 60.8854 293.548 86.8828 307.559 129.109C308.47 131.862 309.33 134.63 310.141 137.414C291.733 143.124 273.722 150.045 256.228 158.133C238.807 149.95 220.853 142.951 202.489 137.185C203.717 132.919 205.049 128.686 206.485 124.485ZM197.944 154.859C210.466 158.801 222.782 163.372 234.844 168.555C219.898 176.267 205.339 184.668 191.167 193.758C192.879 180.147 195.157 167.107 197.944 154.859ZM191.198 318.287C198.266 322.811 205.437 327.168 212.711 331.358C220.131 335.63 227.65 339.723 235.268 343.637C223.114 348.999 210.693 353.733 198.053 357.822C195.234 345.404 192.931 332.134 191.198 318.287ZM307.586 385.391C301.91 403.463 292.957 420.336 281.173 435.167C278.261 439.415 274.508 443.022 270.147 445.763C265.787 448.504 260.91 450.322 255.819 451.104C240.284 451.113 220.456 427.957 206.968 389.334C205.379 384.768 203.918 380.16 202.583 375.51C221.035 369.558 239.061 362.361 256.539 353.97C274.177 362.111 292.331 369.084 310.883 374.845C309.87 378.386 308.771 381.901 307.586 385.391ZM315.314 357.141C303.171 353.386 290.555 348.767 277.721 343.37C284.956 339.563 292.243 335.542 299.582 331.307C307.113 326.958 314.453 322.5 321.6 317.934C320.177 331.102 318.078 344.188 315.314 357.141ZM324.835 255.964C324.85 268.919 324.446 281.865 323.621 294.8C313.111 301.913 302.014 308.858 290.469 315.523C278.972 322.162 267.58 328.262 256.405 333.783C244.646 328.147 233.114 322.074 221.808 315.564C210.566 309.093 199.581 302.202 188.855 294.892C187.874 281.961 187.38 269.007 187.373 256.029C187.364 243.06 187.85 230.109 188.825 217.167C199.332 209.991 210.348 203.051 221.737 196.475C233.179 189.869 244.713 183.794 256.184 178.289C267.799 183.934 279.203 189.983 290.399 196.436C301.633 202.893 312.648 209.71 323.444 216.888C324.371 229.893 324.834 242.918 324.835 255.964ZM345.245 147.317C386.233 139.344 417.138 144.707 424.88 158.116C433.128 172.401 421.307 203.951 391.732 237.185C390.098 239.018 388.401 240.861 386.644 242.71C372.233 229.683 356.952 217.653 340.907 206.702C339.287 187.693 336.398 168.814 332.257 150.191C336.67 149.106 341 148.147 345.245 147.317ZM342.474 230.19C353.297 238.092 363.703 246.55 373.65 255.531C363.747 264.659 353.374 273.263 342.573 281.308C342.904 272.861 343.066 264.41 343.061 255.955C343.057 247.365 342.862 238.776 342.474 230.19ZM424.993 353.684C417.24 367.148 387.279 372.763 347.079 365.158C342.473 364.288 337.746 363.253 332.898 362.052C336.939 343.19 339.701 324.076 341.164 304.841C357.183 293.699 372.416 281.469 386.755 268.236C389.264 270.843 391.651 273.437 393.915 276.02C406.738 289.962 416.885 306.144 423.848 323.76C426.074 328.405 427.325 333.457 427.522 338.603C427.719 343.75 426.858 348.883 424.993 353.684Z" fill="black"/>
</svg>
